<mxfile host="app.diagrams.net" modified="2023-10-01T12:44:39.954Z" agent="Mozilla/5.0 (Windows NT 10.0; Win64; x64) AppleWebKit/537.36 (KHTML, like Gecko) Chrome/117.0.0.0 Safari/537.36" etag="YegFr1VLVX3AcJbcv8yL" version="21.8.2" type="device">
  <diagram id="C5RBs43oDa-KdzZeNtuy" name="Page-1">
    <mxGraphModel dx="1166" dy="468" grid="1" gridSize="10" guides="1" tooltips="1" connect="1" arrows="1" fold="1" page="1" pageScale="1" pageWidth="827" pageHeight="1169" math="0" shadow="0">
      <root>
        <mxCell id="WIyWlLk6GJQsqaUBKTNV-0" />
        <mxCell id="WIyWlLk6GJQsqaUBKTNV-1" parent="WIyWlLk6GJQsqaUBKTNV-0" />
        <mxCell id="vQZx6_oEGpRoBVj_vFc8-3" style="edgeStyle=orthogonalEdgeStyle;rounded=0;orthogonalLoop=1;jettySize=auto;html=1;" edge="1" parent="WIyWlLk6GJQsqaUBKTNV-1" source="vQZx6_oEGpRoBVj_vFc8-0" target="vQZx6_oEGpRoBVj_vFc8-1">
          <mxGeometry relative="1" as="geometry" />
        </mxCell>
        <mxCell id="vQZx6_oEGpRoBVj_vFc8-0" value="Старт" style="ellipse;whiteSpace=wrap;html=1;" vertex="1" parent="WIyWlLk6GJQsqaUBKTNV-1">
          <mxGeometry x="-780" y="72.25" width="120" height="80" as="geometry" />
        </mxCell>
        <mxCell id="vQZx6_oEGpRoBVj_vFc8-2" style="edgeStyle=orthogonalEdgeStyle;rounded=0;orthogonalLoop=1;jettySize=auto;html=1;" edge="1" parent="WIyWlLk6GJQsqaUBKTNV-1" source="vQZx6_oEGpRoBVj_vFc8-1">
          <mxGeometry relative="1" as="geometry">
            <mxPoint x="-720" y="272.2499999999999" as="targetPoint" />
          </mxGeometry>
        </mxCell>
        <mxCell id="vQZx6_oEGpRoBVj_vFc8-1" value="Заполнение&lt;br&gt;массива" style="shape=parallelogram;perimeter=parallelogramPerimeter;whiteSpace=wrap;html=1;fixedSize=1;" vertex="1" parent="WIyWlLk6GJQsqaUBKTNV-1">
          <mxGeometry x="-780" y="172.25" width="120" height="60" as="geometry" />
        </mxCell>
        <mxCell id="vQZx6_oEGpRoBVj_vFc8-9" style="edgeStyle=orthogonalEdgeStyle;rounded=0;orthogonalLoop=1;jettySize=auto;html=1;entryX=0.5;entryY=0;entryDx=0;entryDy=0;" edge="1" parent="WIyWlLk6GJQsqaUBKTNV-1" source="vQZx6_oEGpRoBVj_vFc8-7" target="vQZx6_oEGpRoBVj_vFc8-8">
          <mxGeometry relative="1" as="geometry" />
        </mxCell>
        <mxCell id="vQZx6_oEGpRoBVj_vFc8-7" value="Итерация границ&lt;br&gt;left = 0;&lt;br&gt;right = count - 1;" style="rounded=0;whiteSpace=wrap;html=1;" vertex="1" parent="WIyWlLk6GJQsqaUBKTNV-1">
          <mxGeometry x="-580.12" y="622.25" width="120" height="60" as="geometry" />
        </mxCell>
        <mxCell id="vQZx6_oEGpRoBVj_vFc8-11" style="edgeStyle=orthogonalEdgeStyle;rounded=0;orthogonalLoop=1;jettySize=auto;html=1;entryX=0.5;entryY=0;entryDx=0;entryDy=0;" edge="1" parent="WIyWlLk6GJQsqaUBKTNV-1" source="vQZx6_oEGpRoBVj_vFc8-8" target="vQZx6_oEGpRoBVj_vFc8-10">
          <mxGeometry relative="1" as="geometry" />
        </mxCell>
        <mxCell id="vQZx6_oEGpRoBVj_vFc8-8" value="Итерация наличия&lt;br&gt;перемещений&amp;nbsp;&lt;br&gt;flag = 1;&amp;nbsp;" style="rounded=0;whiteSpace=wrap;html=1;" vertex="1" parent="WIyWlLk6GJQsqaUBKTNV-1">
          <mxGeometry x="-580.12" y="722.25" width="120" height="60" as="geometry" />
        </mxCell>
        <mxCell id="vQZx6_oEGpRoBVj_vFc8-13" style="edgeStyle=orthogonalEdgeStyle;rounded=0;orthogonalLoop=1;jettySize=auto;html=1;entryX=0;entryY=0.5;entryDx=0;entryDy=0;" edge="1" parent="WIyWlLk6GJQsqaUBKTNV-1" source="vQZx6_oEGpRoBVj_vFc8-10" target="vQZx6_oEGpRoBVj_vFc8-12">
          <mxGeometry relative="1" as="geometry" />
        </mxCell>
        <mxCell id="vQZx6_oEGpRoBVj_vFc8-10" value="Пока левая граница&lt;br&gt;не сомкнется с правой и пока в массиве имеются перемещения&lt;br&gt;&lt;br&gt;(left &amp;lt; right) &amp;amp;&amp;amp;&lt;br&gt;flag &amp;gt; 0" style="shape=loopLimit;whiteSpace=wrap;html=1;direction=north;" vertex="1" parent="WIyWlLk6GJQsqaUBKTNV-1">
          <mxGeometry x="-590.12" y="842.25" width="140" height="120" as="geometry" />
        </mxCell>
        <mxCell id="vQZx6_oEGpRoBVj_vFc8-16" style="edgeStyle=orthogonalEdgeStyle;rounded=0;orthogonalLoop=1;jettySize=auto;html=1;entryX=0.5;entryY=0;entryDx=0;entryDy=0;" edge="1" parent="WIyWlLk6GJQsqaUBKTNV-1" source="vQZx6_oEGpRoBVj_vFc8-12" target="vQZx6_oEGpRoBVj_vFc8-15">
          <mxGeometry relative="1" as="geometry" />
        </mxCell>
        <mxCell id="vQZx6_oEGpRoBVj_vFc8-12" value="flag = 0" style="rounded=0;whiteSpace=wrap;html=1;" vertex="1" parent="WIyWlLk6GJQsqaUBKTNV-1">
          <mxGeometry x="-407.62" y="872.25" width="120" height="60" as="geometry" />
        </mxCell>
        <mxCell id="vQZx6_oEGpRoBVj_vFc8-18" style="edgeStyle=orthogonalEdgeStyle;rounded=0;orthogonalLoop=1;jettySize=auto;html=1;" edge="1" parent="WIyWlLk6GJQsqaUBKTNV-1" source="vQZx6_oEGpRoBVj_vFc8-15" target="vQZx6_oEGpRoBVj_vFc8-17">
          <mxGeometry relative="1" as="geometry" />
        </mxCell>
        <mxCell id="vQZx6_oEGpRoBVj_vFc8-15" value="движение слева&lt;br&gt;направо&lt;br&gt;int i = left;&lt;br&gt;i &amp;lt; right;&lt;br&gt;i++" style="shape=loopLimit;whiteSpace=wrap;html=1;direction=west;" vertex="1" parent="WIyWlLk6GJQsqaUBKTNV-1">
          <mxGeometry x="-407.62" y="672.25" width="120" height="100" as="geometry" />
        </mxCell>
        <mxCell id="vQZx6_oEGpRoBVj_vFc8-21" style="edgeStyle=orthogonalEdgeStyle;rounded=0;orthogonalLoop=1;jettySize=auto;html=1;entryX=0.002;entryY=0.372;entryDx=0;entryDy=0;entryPerimeter=0;" edge="1" parent="WIyWlLk6GJQsqaUBKTNV-1">
          <mxGeometry relative="1" as="geometry">
            <mxPoint x="-287.61999999999995" y="735.05" as="targetPoint" />
            <mxPoint x="-277.37999999999994" y="562.25" as="sourcePoint" />
            <Array as="points">
              <mxPoint x="-260.2" y="562.25" />
              <mxPoint x="-260.2" y="735.25" />
            </Array>
          </mxGeometry>
        </mxCell>
        <mxCell id="vQZx6_oEGpRoBVj_vFc8-17" value="&lt;font style=&quot;font-size: 11px;&quot;&gt;Если следующий&lt;br&gt;элемент массива&lt;br&gt;меньше текущего&lt;/font&gt;" style="rhombus;whiteSpace=wrap;html=1;" vertex="1" parent="WIyWlLk6GJQsqaUBKTNV-1">
          <mxGeometry x="-417.62" y="492.25" width="140" height="140" as="geometry" />
        </mxCell>
        <mxCell id="vQZx6_oEGpRoBVj_vFc8-30" style="edgeStyle=orthogonalEdgeStyle;rounded=0;orthogonalLoop=1;jettySize=auto;html=1;" edge="1" parent="WIyWlLk6GJQsqaUBKTNV-1" source="vQZx6_oEGpRoBVj_vFc8-23">
          <mxGeometry relative="1" as="geometry">
            <mxPoint x="-347.61999999999995" y="274.25" as="targetPoint" />
          </mxGeometry>
        </mxCell>
        <mxCell id="vQZx6_oEGpRoBVj_vFc8-23" value="меняем элементы местами&lt;br&gt;double t = mass[i];&lt;br&gt;mass[i] = mass[i + 1];&lt;br&gt;mass[i + 1] = t;" style="rounded=0;whiteSpace=wrap;html=1;" vertex="1" parent="WIyWlLk6GJQsqaUBKTNV-1">
          <mxGeometry x="-425.07" y="352.25" width="154.91" height="84.5" as="geometry" />
        </mxCell>
        <mxCell id="vQZx6_oEGpRoBVj_vFc8-36" style="edgeStyle=orthogonalEdgeStyle;rounded=0;orthogonalLoop=1;jettySize=auto;html=1;entryX=0.5;entryY=1;entryDx=0;entryDy=0;" edge="1" parent="WIyWlLk6GJQsqaUBKTNV-1" source="vQZx6_oEGpRoBVj_vFc8-24" target="vQZx6_oEGpRoBVj_vFc8-35">
          <mxGeometry relative="1" as="geometry" />
        </mxCell>
        <mxCell id="vQZx6_oEGpRoBVj_vFc8-24" value="Перемещения&lt;br&gt;в цикле были&lt;br&gt;flag = 1;" style="rounded=0;whiteSpace=wrap;html=1;" vertex="1" parent="WIyWlLk6GJQsqaUBKTNV-1">
          <mxGeometry x="-407.62" y="214.25" width="120" height="60" as="geometry" />
        </mxCell>
        <mxCell id="vQZx6_oEGpRoBVj_vFc8-31" style="edgeStyle=orthogonalEdgeStyle;rounded=0;orthogonalLoop=1;jettySize=auto;html=1;entryX=0.5;entryY=0.956;entryDx=0;entryDy=0;entryPerimeter=0;" edge="1" parent="WIyWlLk6GJQsqaUBKTNV-1" source="vQZx6_oEGpRoBVj_vFc8-17" target="vQZx6_oEGpRoBVj_vFc8-23">
          <mxGeometry relative="1" as="geometry" />
        </mxCell>
        <mxCell id="vQZx6_oEGpRoBVj_vFc8-33" value="Да" style="edgeLabel;html=1;align=center;verticalAlign=middle;resizable=0;points=[];" vertex="1" connectable="0" parent="vQZx6_oEGpRoBVj_vFc8-31">
          <mxGeometry x="0.0133" y="-4" relative="1" as="geometry">
            <mxPoint as="offset" />
          </mxGeometry>
        </mxCell>
        <mxCell id="vQZx6_oEGpRoBVj_vFc8-53" style="edgeStyle=orthogonalEdgeStyle;rounded=0;orthogonalLoop=1;jettySize=auto;html=1;entryX=0.5;entryY=0;entryDx=0;entryDy=0;" edge="1" parent="WIyWlLk6GJQsqaUBKTNV-1" source="vQZx6_oEGpRoBVj_vFc8-35" target="vQZx6_oEGpRoBVj_vFc8-37">
          <mxGeometry relative="1" as="geometry">
            <mxPoint x="-223.05714285714282" y="-27.75" as="targetPoint" />
            <Array as="points">
              <mxPoint x="-347.2" y="22.25" />
              <mxPoint x="-143.2" y="22.25" />
            </Array>
          </mxGeometry>
        </mxCell>
        <mxCell id="vQZx6_oEGpRoBVj_vFc8-35" value="Конец цикла движения&lt;br&gt;(i &amp;gt;= right)" style="shape=loopLimit;whiteSpace=wrap;html=1;direction=east;" vertex="1" parent="WIyWlLk6GJQsqaUBKTNV-1">
          <mxGeometry x="-407.61" y="72.25" width="120" height="60" as="geometry" />
        </mxCell>
        <mxCell id="vQZx6_oEGpRoBVj_vFc8-50" style="edgeStyle=orthogonalEdgeStyle;rounded=0;orthogonalLoop=1;jettySize=auto;html=1;entryX=0.5;entryY=0;entryDx=0;entryDy=0;" edge="1" parent="WIyWlLk6GJQsqaUBKTNV-1" source="vQZx6_oEGpRoBVj_vFc8-37" target="vQZx6_oEGpRoBVj_vFc8-40">
          <mxGeometry relative="1" as="geometry" />
        </mxCell>
        <mxCell id="vQZx6_oEGpRoBVj_vFc8-37" value="Сдвигаем правую&lt;br&gt;границу на&lt;br&gt;предыдущий элемент&lt;br&gt;right--;" style="rounded=0;whiteSpace=wrap;html=1;" vertex="1" parent="WIyWlLk6GJQsqaUBKTNV-1">
          <mxGeometry x="-212.75" y="70" width="140" height="80" as="geometry" />
        </mxCell>
        <mxCell id="vQZx6_oEGpRoBVj_vFc8-39" style="edgeStyle=orthogonalEdgeStyle;rounded=0;orthogonalLoop=1;jettySize=auto;html=1;" edge="1" parent="WIyWlLk6GJQsqaUBKTNV-1" source="vQZx6_oEGpRoBVj_vFc8-40" target="vQZx6_oEGpRoBVj_vFc8-43">
          <mxGeometry relative="1" as="geometry" />
        </mxCell>
        <mxCell id="vQZx6_oEGpRoBVj_vFc8-40" value="движение справа&lt;br&gt;налево&lt;br&gt;int i = right;&lt;br&gt;i &amp;gt; left;&lt;br&gt;i--;" style="shape=loopLimit;whiteSpace=wrap;html=1;direction=east;" vertex="1" parent="WIyWlLk6GJQsqaUBKTNV-1">
          <mxGeometry x="-202.75" y="192.25" width="120" height="90" as="geometry" />
        </mxCell>
        <mxCell id="vQZx6_oEGpRoBVj_vFc8-54" style="edgeStyle=orthogonalEdgeStyle;rounded=0;orthogonalLoop=1;jettySize=auto;html=1;" edge="1" parent="WIyWlLk6GJQsqaUBKTNV-1" source="vQZx6_oEGpRoBVj_vFc8-43" target="vQZx6_oEGpRoBVj_vFc8-45">
          <mxGeometry relative="1" as="geometry" />
        </mxCell>
        <mxCell id="vQZx6_oEGpRoBVj_vFc8-60" value="да" style="edgeLabel;html=1;align=center;verticalAlign=middle;resizable=0;points=[];" vertex="1" connectable="0" parent="vQZx6_oEGpRoBVj_vFc8-54">
          <mxGeometry x="-0.3308" y="1" relative="1" as="geometry">
            <mxPoint y="1" as="offset" />
          </mxGeometry>
        </mxCell>
        <mxCell id="vQZx6_oEGpRoBVj_vFc8-59" style="edgeStyle=orthogonalEdgeStyle;rounded=0;orthogonalLoop=1;jettySize=auto;html=1;entryX=1;entryY=0.5;entryDx=0;entryDy=0;exitX=1;exitY=0.5;exitDx=0;exitDy=0;" edge="1" parent="WIyWlLk6GJQsqaUBKTNV-1" source="vQZx6_oEGpRoBVj_vFc8-43" target="vQZx6_oEGpRoBVj_vFc8-40">
          <mxGeometry relative="1" as="geometry">
            <Array as="points">
              <mxPoint x="-20.19999999999999" y="394.25" />
              <mxPoint x="-20.19999999999999" y="242.25" />
            </Array>
          </mxGeometry>
        </mxCell>
        <mxCell id="vQZx6_oEGpRoBVj_vFc8-61" value="нет" style="edgeLabel;html=1;align=center;verticalAlign=middle;resizable=0;points=[];" vertex="1" connectable="0" parent="vQZx6_oEGpRoBVj_vFc8-59">
          <mxGeometry x="-0.062" y="1" relative="1" as="geometry">
            <mxPoint as="offset" />
          </mxGeometry>
        </mxCell>
        <mxCell id="vQZx6_oEGpRoBVj_vFc8-43" value="&lt;font style=&quot;font-size: 11px;&quot;&gt;Если следующий&lt;br&gt;элемент массива&lt;br&gt;меньше текущего&lt;/font&gt;" style="rhombus;whiteSpace=wrap;html=1;direction=east;" vertex="1" parent="WIyWlLk6GJQsqaUBKTNV-1">
          <mxGeometry x="-212.74999999999997" y="310" width="140" height="140" as="geometry" />
        </mxCell>
        <mxCell id="vQZx6_oEGpRoBVj_vFc8-55" style="edgeStyle=orthogonalEdgeStyle;rounded=0;orthogonalLoop=1;jettySize=auto;html=1;" edge="1" parent="WIyWlLk6GJQsqaUBKTNV-1" source="vQZx6_oEGpRoBVj_vFc8-45" target="vQZx6_oEGpRoBVj_vFc8-46">
          <mxGeometry relative="1" as="geometry" />
        </mxCell>
        <mxCell id="vQZx6_oEGpRoBVj_vFc8-45" value="меняем элементы местами&lt;br&gt;double t = mass[i];&lt;br&gt;mass[i] = mass[i - 1];&lt;br&gt;mass[i - 1] = t;" style="rounded=0;whiteSpace=wrap;html=1;direction=west;" vertex="1" parent="WIyWlLk6GJQsqaUBKTNV-1">
          <mxGeometry x="-220.2" y="502.25" width="154.91" height="84.5" as="geometry" />
        </mxCell>
        <mxCell id="vQZx6_oEGpRoBVj_vFc8-57" style="edgeStyle=orthogonalEdgeStyle;rounded=0;orthogonalLoop=1;jettySize=auto;html=1;entryX=0.5;entryY=1;entryDx=0;entryDy=0;" edge="1" parent="WIyWlLk6GJQsqaUBKTNV-1" source="vQZx6_oEGpRoBVj_vFc8-46" target="vQZx6_oEGpRoBVj_vFc8-56">
          <mxGeometry relative="1" as="geometry" />
        </mxCell>
        <mxCell id="vQZx6_oEGpRoBVj_vFc8-46" value="Перемещения&lt;br&gt;в цикле были&lt;br&gt;flag = 1;" style="rounded=0;whiteSpace=wrap;html=1;direction=west;" vertex="1" parent="WIyWlLk6GJQsqaUBKTNV-1">
          <mxGeometry x="-202.74999999999997" y="620" width="120" height="60" as="geometry" />
        </mxCell>
        <mxCell id="vQZx6_oEGpRoBVj_vFc8-63" style="edgeStyle=orthogonalEdgeStyle;rounded=0;orthogonalLoop=1;jettySize=auto;html=1;" edge="1" parent="WIyWlLk6GJQsqaUBKTNV-1" source="vQZx6_oEGpRoBVj_vFc8-56" target="vQZx6_oEGpRoBVj_vFc8-62">
          <mxGeometry relative="1" as="geometry" />
        </mxCell>
        <mxCell id="vQZx6_oEGpRoBVj_vFc8-56" value="Конец цикла движения&lt;br&gt;(i &amp;lt;= left)" style="shape=loopLimit;whiteSpace=wrap;html=1;direction=west;" vertex="1" parent="WIyWlLk6GJQsqaUBKTNV-1">
          <mxGeometry x="-202.75" y="710" width="120" height="70" as="geometry" />
        </mxCell>
        <mxCell id="vQZx6_oEGpRoBVj_vFc8-62" value="Сдвигаем левую&lt;br&gt;границу на&lt;br&gt;следующий элемент&lt;br&gt;right--;" style="rounded=0;whiteSpace=wrap;html=1;" vertex="1" parent="WIyWlLk6GJQsqaUBKTNV-1">
          <mxGeometry x="-212.75" y="820" width="140" height="70" as="geometry" />
        </mxCell>
        <mxCell id="vQZx6_oEGpRoBVj_vFc8-69" style="edgeStyle=orthogonalEdgeStyle;rounded=0;orthogonalLoop=1;jettySize=auto;html=1;entryX=0.5;entryY=0;entryDx=0;entryDy=0;" edge="1" parent="WIyWlLk6GJQsqaUBKTNV-1" source="vQZx6_oEGpRoBVj_vFc8-66">
          <mxGeometry relative="1" as="geometry">
            <mxPoint x="-720" y="372.25" as="targetPoint" />
          </mxGeometry>
        </mxCell>
        <mxCell id="vQZx6_oEGpRoBVj_vFc8-66" value="Вызов функции&lt;br style=&quot;border-color: var(--border-color);&quot;&gt;сортировки&lt;br style=&quot;border-color: var(--border-color);&quot;&gt;(double *mass,&lt;br style=&quot;border-color: var(--border-color);&quot;&gt;int count)" style="shape=process;whiteSpace=wrap;html=1;backgroundOutline=1;" vertex="1" parent="WIyWlLk6GJQsqaUBKTNV-1">
          <mxGeometry x="-780" y="272.25" width="120" height="60" as="geometry" />
        </mxCell>
        <mxCell id="vQZx6_oEGpRoBVj_vFc8-73" style="edgeStyle=orthogonalEdgeStyle;rounded=0;orthogonalLoop=1;jettySize=auto;html=1;entryX=0.5;entryY=0;entryDx=0;entryDy=0;" edge="1" parent="WIyWlLk6GJQsqaUBKTNV-1" source="vQZx6_oEGpRoBVj_vFc8-70" target="vQZx6_oEGpRoBVj_vFc8-71">
          <mxGeometry relative="1" as="geometry" />
        </mxCell>
        <mxCell id="vQZx6_oEGpRoBVj_vFc8-70" value="Цикл вывода отсортированных&lt;br&gt;элементов&lt;br&gt;(int i = 0; i &amp;lt; 10;&lt;br&gt;i++)" style="shape=loopLimit;whiteSpace=wrap;html=1;" vertex="1" parent="WIyWlLk6GJQsqaUBKTNV-1">
          <mxGeometry x="-770" y="372.25" width="100" height="90" as="geometry" />
        </mxCell>
        <mxCell id="vQZx6_oEGpRoBVj_vFc8-75" style="edgeStyle=orthogonalEdgeStyle;rounded=0;orthogonalLoop=1;jettySize=auto;html=1;" edge="1" parent="WIyWlLk6GJQsqaUBKTNV-1" source="vQZx6_oEGpRoBVj_vFc8-71" target="vQZx6_oEGpRoBVj_vFc8-74">
          <mxGeometry relative="1" as="geometry" />
        </mxCell>
        <mxCell id="vQZx6_oEGpRoBVj_vFc8-71" value="Вывод i - го&lt;br&gt;элемента" style="rounded=0;whiteSpace=wrap;html=1;" vertex="1" parent="WIyWlLk6GJQsqaUBKTNV-1">
          <mxGeometry x="-770" y="514.5" width="100" height="60" as="geometry" />
        </mxCell>
        <mxCell id="vQZx6_oEGpRoBVj_vFc8-78" style="edgeStyle=orthogonalEdgeStyle;rounded=0;orthogonalLoop=1;jettySize=auto;html=1;" edge="1" parent="WIyWlLk6GJQsqaUBKTNV-1" source="vQZx6_oEGpRoBVj_vFc8-74" target="vQZx6_oEGpRoBVj_vFc8-77">
          <mxGeometry relative="1" as="geometry" />
        </mxCell>
        <mxCell id="vQZx6_oEGpRoBVj_vFc8-74" value="Конец цикла вывода&lt;br&gt;(i &amp;gt;= 10)" style="shape=loopLimit;whiteSpace=wrap;html=1;direction=west;" vertex="1" parent="WIyWlLk6GJQsqaUBKTNV-1">
          <mxGeometry x="-770" y="622.25" width="100" height="90" as="geometry" />
        </mxCell>
        <mxCell id="vQZx6_oEGpRoBVj_vFc8-80" style="edgeStyle=orthogonalEdgeStyle;rounded=0;orthogonalLoop=1;jettySize=auto;html=1;" edge="1" parent="WIyWlLk6GJQsqaUBKTNV-1" source="vQZx6_oEGpRoBVj_vFc8-77" target="vQZx6_oEGpRoBVj_vFc8-79">
          <mxGeometry relative="1" as="geometry" />
        </mxCell>
        <mxCell id="vQZx6_oEGpRoBVj_vFc8-77" value="return(0);" style="rounded=0;whiteSpace=wrap;html=1;" vertex="1" parent="WIyWlLk6GJQsqaUBKTNV-1">
          <mxGeometry x="-780" y="762.25" width="120" height="30" as="geometry" />
        </mxCell>
        <mxCell id="vQZx6_oEGpRoBVj_vFc8-79" value="Стоп" style="ellipse;whiteSpace=wrap;html=1;" vertex="1" parent="WIyWlLk6GJQsqaUBKTNV-1">
          <mxGeometry x="-780" y="842.25" width="120" height="80" as="geometry" />
        </mxCell>
        <mxCell id="vQZx6_oEGpRoBVj_vFc8-82" style="edgeStyle=orthogonalEdgeStyle;rounded=0;orthogonalLoop=1;jettySize=auto;html=1;" edge="1" parent="WIyWlLk6GJQsqaUBKTNV-1" source="vQZx6_oEGpRoBVj_vFc8-81">
          <mxGeometry relative="1" as="geometry">
            <mxPoint x="-520.12" y="620" as="targetPoint" />
          </mxGeometry>
        </mxCell>
        <mxCell id="vQZx6_oEGpRoBVj_vFc8-81" value="Начало функции&lt;br&gt;сортировки" style="strokeWidth=2;html=1;shape=mxgraph.flowchart.terminator;whiteSpace=wrap;" vertex="1" parent="WIyWlLk6GJQsqaUBKTNV-1">
          <mxGeometry x="-595.12" y="526.75" width="150" height="60" as="geometry" />
        </mxCell>
        <mxCell id="vQZx6_oEGpRoBVj_vFc8-83" value="Конец функции" style="strokeWidth=2;html=1;shape=mxgraph.flowchart.terminator;whiteSpace=wrap;" vertex="1" parent="WIyWlLk6GJQsqaUBKTNV-1">
          <mxGeometry x="-217.73999999999998" y="920" width="150" height="60" as="geometry" />
        </mxCell>
        <mxCell id="vQZx6_oEGpRoBVj_vFc8-85" style="edgeStyle=orthogonalEdgeStyle;rounded=0;orthogonalLoop=1;jettySize=auto;html=1;entryX=0.5;entryY=0;entryDx=0;entryDy=0;entryPerimeter=0;" edge="1" parent="WIyWlLk6GJQsqaUBKTNV-1" source="vQZx6_oEGpRoBVj_vFc8-62" target="vQZx6_oEGpRoBVj_vFc8-83">
          <mxGeometry relative="1" as="geometry" />
        </mxCell>
      </root>
    </mxGraphModel>
  </diagram>
</mxfile>
